<mxfile host="app.diagrams.net" modified="2021-05-14T01:49:14.653Z" agent="5.0 (Windows NT 6.1; Win64; x64) AppleWebKit/537.36 (KHTML, like Gecko) Chrome/90.0.4430.212 Safari/537.36" etag="ZZEsWhDrQCkSQMFFqJYO" version="14.2.3" type="github">
  <diagram id="BNXDuKq572OTITvmgVyn" name="Page-1">
    <mxGraphModel dx="785" dy="512" grid="1" gridSize="10" guides="1" tooltips="1" connect="1" arrows="1" fold="1" page="1" pageScale="1" pageWidth="827" pageHeight="1169" math="0" shadow="0">
      <root>
        <mxCell id="0" />
        <mxCell id="1" parent="0" />
        <mxCell id="I2Jf-kGnw8Qhnhh_3Aru-21" value="" style="endArrow=none;dashed=1;html=1;dashPattern=1 3;strokeWidth=2;" edge="1" parent="1">
          <mxGeometry width="50" height="50" relative="1" as="geometry">
            <mxPoint x="322" y="880" as="sourcePoint" />
            <mxPoint x="322.08" y="720" as="targetPoint" />
          </mxGeometry>
        </mxCell>
        <mxCell id="I2Jf-kGnw8Qhnhh_3Aru-1" value="学生机" style="rounded=1;whiteSpace=wrap;html=1;" vertex="1" parent="1">
          <mxGeometry x="30" y="30" width="120" height="60" as="geometry" />
        </mxCell>
        <mxCell id="I2Jf-kGnw8Qhnhh_3Aru-2" value="是否存在教师机" style="rhombus;whiteSpace=wrap;html=1;" vertex="1" parent="1">
          <mxGeometry x="310" y="20" width="130" height="80" as="geometry" />
        </mxCell>
        <mxCell id="I2Jf-kGnw8Qhnhh_3Aru-3" value="" style="endArrow=classic;html=1;exitX=1;exitY=0.5;exitDx=0;exitDy=0;" edge="1" parent="1" source="I2Jf-kGnw8Qhnhh_3Aru-1" target="I2Jf-kGnw8Qhnhh_3Aru-2">
          <mxGeometry width="50" height="50" relative="1" as="geometry">
            <mxPoint x="390" y="340" as="sourcePoint" />
            <mxPoint x="440" y="290" as="targetPoint" />
          </mxGeometry>
        </mxCell>
        <mxCell id="I2Jf-kGnw8Qhnhh_3Aru-4" value="" style="endArrow=classic;html=1;exitX=1;exitY=0.5;exitDx=0;exitDy=0;" edge="1" parent="1" source="I2Jf-kGnw8Qhnhh_3Aru-2">
          <mxGeometry width="50" height="50" relative="1" as="geometry">
            <mxPoint x="390" y="330" as="sourcePoint" />
            <mxPoint x="480" y="60" as="targetPoint" />
          </mxGeometry>
        </mxCell>
        <mxCell id="I2Jf-kGnw8Qhnhh_3Aru-5" value="否" style="text;html=1;align=center;verticalAlign=middle;resizable=0;points=[];autosize=1;" vertex="1" parent="1">
          <mxGeometry x="440" y="40" width="30" height="20" as="geometry" />
        </mxCell>
        <mxCell id="I2Jf-kGnw8Qhnhh_3Aru-6" value="" style="endArrow=classic;html=1;exitX=0.5;exitY=1;exitDx=0;exitDy=0;" edge="1" parent="1" source="I2Jf-kGnw8Qhnhh_3Aru-2">
          <mxGeometry width="50" height="50" relative="1" as="geometry">
            <mxPoint x="440" y="330" as="sourcePoint" />
            <mxPoint x="375" y="170" as="targetPoint" />
          </mxGeometry>
        </mxCell>
        <mxCell id="I2Jf-kGnw8Qhnhh_3Aru-7" value="是" style="text;html=1;align=center;verticalAlign=middle;resizable=0;points=[];autosize=1;" vertex="1" parent="1">
          <mxGeometry x="335" y="120" width="30" height="20" as="geometry" />
        </mxCell>
        <mxCell id="I2Jf-kGnw8Qhnhh_3Aru-8" value="互联网升级" style="rounded=1;whiteSpace=wrap;html=1;" vertex="1" parent="1">
          <mxGeometry x="480" y="30" width="120" height="60" as="geometry" />
        </mxCell>
        <mxCell id="I2Jf-kGnw8Qhnhh_3Aru-9" value="教师机请求升级&lt;br&gt;下载学生机升级包" style="rounded=1;whiteSpace=wrap;html=1;" vertex="1" parent="1">
          <mxGeometry x="315" y="170" width="120" height="60" as="geometry" />
        </mxCell>
        <mxCell id="I2Jf-kGnw8Qhnhh_3Aru-10" value="" style="endArrow=classic;html=1;exitX=0;exitY=0.525;exitDx=0;exitDy=0;exitPerimeter=0;" edge="1" parent="1" source="I2Jf-kGnw8Qhnhh_3Aru-14">
          <mxGeometry width="50" height="50" relative="1" as="geometry">
            <mxPoint x="370" y="281" as="sourcePoint" />
            <mxPoint x="90" y="281" as="targetPoint" />
            <Array as="points" />
          </mxGeometry>
        </mxCell>
        <mxCell id="I2Jf-kGnw8Qhnhh_3Aru-11" value="" style="endArrow=none;dashed=1;html=1;dashPattern=1 3;strokeWidth=2;entryX=0.5;entryY=1;entryDx=0;entryDy=0;" edge="1" parent="1" target="I2Jf-kGnw8Qhnhh_3Aru-1">
          <mxGeometry width="50" height="50" relative="1" as="geometry">
            <mxPoint x="90" y="530" as="sourcePoint" />
            <mxPoint x="440" y="280" as="targetPoint" />
          </mxGeometry>
        </mxCell>
        <mxCell id="I2Jf-kGnw8Qhnhh_3Aru-12" value="通知下载进度" style="text;html=1;align=center;verticalAlign=middle;resizable=0;points=[];autosize=1;" vertex="1" parent="1">
          <mxGeometry x="190" y="250" width="90" height="20" as="geometry" />
        </mxCell>
        <mxCell id="I2Jf-kGnw8Qhnhh_3Aru-13" value="" style="endArrow=classic;html=1;exitX=0.5;exitY=1;exitDx=0;exitDy=0;entryX=0.5;entryY=0;entryDx=0;entryDy=0;" edge="1" parent="1" source="I2Jf-kGnw8Qhnhh_3Aru-9" target="I2Jf-kGnw8Qhnhh_3Aru-15">
          <mxGeometry width="50" height="50" relative="1" as="geometry">
            <mxPoint x="440" y="330" as="sourcePoint" />
            <mxPoint x="375" y="320" as="targetPoint" />
          </mxGeometry>
        </mxCell>
        <mxCell id="I2Jf-kGnw8Qhnhh_3Aru-14" value="下载中" style="text;html=1;align=center;verticalAlign=middle;resizable=0;points=[];autosize=1;" vertex="1" parent="1">
          <mxGeometry x="370" y="270" width="50" height="20" as="geometry" />
        </mxCell>
        <mxCell id="I2Jf-kGnw8Qhnhh_3Aru-15" value="下载完成" style="rounded=1;whiteSpace=wrap;html=1;" vertex="1" parent="1">
          <mxGeometry x="315" y="330" width="120" height="60" as="geometry" />
        </mxCell>
        <mxCell id="I2Jf-kGnw8Qhnhh_3Aru-16" value="" style="endArrow=classic;html=1;exitX=0;exitY=0.5;exitDx=0;exitDy=0;" edge="1" parent="1" source="I2Jf-kGnw8Qhnhh_3Aru-15">
          <mxGeometry width="50" height="50" relative="1" as="geometry">
            <mxPoint x="390" y="330" as="sourcePoint" />
            <mxPoint x="90" y="360" as="targetPoint" />
          </mxGeometry>
        </mxCell>
        <mxCell id="I2Jf-kGnw8Qhnhh_3Aru-17" value="发送升级包给学生机" style="text;html=1;align=center;verticalAlign=middle;resizable=0;points=[];autosize=1;" vertex="1" parent="1">
          <mxGeometry x="145" y="330" width="120" height="20" as="geometry" />
        </mxCell>
        <mxCell id="I2Jf-kGnw8Qhnhh_3Aru-18" value="或者通知本机升级包路径供学生机下载" style="text;html=1;align=center;verticalAlign=middle;resizable=0;points=[];autosize=1;editable=1;resizeWidth=1;" vertex="1" parent="1">
          <mxGeometry x="95" y="370" width="220" height="20" as="geometry" />
        </mxCell>
        <mxCell id="I2Jf-kGnw8Qhnhh_3Aru-20" value="教师机&lt;br&gt;EvLauncher" style="rounded=1;whiteSpace=wrap;html=1;" vertex="1" parent="1">
          <mxGeometry x="260" y="760" width="125" height="60" as="geometry" />
        </mxCell>
        <mxCell id="I2Jf-kGnw8Qhnhh_3Aru-22" value="LocalServer&lt;br&gt;ip:127.0.0.1&lt;br&gt;port:55555" style="text;html=1;align=center;verticalAlign=middle;resizable=0;points=[];autosize=1;" vertex="1" parent="1">
          <mxGeometry x="150" y="820" width="80" height="50" as="geometry" />
        </mxCell>
        <mxCell id="I2Jf-kGnw8Qhnhh_3Aru-23" value="RemoteServer&lt;br&gt;ip:教师机ip&lt;br&gt;port:55544" style="text;html=1;align=center;verticalAlign=middle;resizable=0;points=[];autosize=1;" vertex="1" parent="1">
          <mxGeometry x="410" y="830" width="90" height="50" as="geometry" />
        </mxCell>
        <mxCell id="I2Jf-kGnw8Qhnhh_3Aru-24" value="" style="endArrow=classic;html=1;exitX=0;exitY=0.5;exitDx=0;exitDy=0;entryX=0.5;entryY=0;entryDx=0;entryDy=0;" edge="1" parent="1" source="I2Jf-kGnw8Qhnhh_3Aru-20" target="I2Jf-kGnw8Qhnhh_3Aru-25">
          <mxGeometry width="50" height="50" relative="1" as="geometry">
            <mxPoint x="340" y="930" as="sourcePoint" />
            <mxPoint x="120" y="840" as="targetPoint" />
            <Array as="points">
              <mxPoint x="70" y="790" />
            </Array>
          </mxGeometry>
        </mxCell>
        <mxCell id="I2Jf-kGnw8Qhnhh_3Aru-25" value="master等apk作为客户端使用" style="rounded=1;whiteSpace=wrap;html=1;" vertex="1" parent="1">
          <mxGeometry x="10" y="840" width="120" height="60" as="geometry" />
        </mxCell>
        <mxCell id="I2Jf-kGnw8Qhnhh_3Aru-26" value="学生机" style="rounded=1;whiteSpace=wrap;html=1;" vertex="1" parent="1">
          <mxGeometry x="530" y="850" width="120" height="60" as="geometry" />
        </mxCell>
        <mxCell id="I2Jf-kGnw8Qhnhh_3Aru-27" value="" style="endArrow=classic;html=1;exitX=1;exitY=0.5;exitDx=0;exitDy=0;entryX=0.5;entryY=0;entryDx=0;entryDy=0;" edge="1" parent="1" source="I2Jf-kGnw8Qhnhh_3Aru-20" target="I2Jf-kGnw8Qhnhh_3Aru-26">
          <mxGeometry width="50" height="50" relative="1" as="geometry">
            <mxPoint x="340" y="890" as="sourcePoint" />
            <mxPoint x="390" y="840" as="targetPoint" />
            <Array as="points">
              <mxPoint x="380" y="790" />
              <mxPoint x="590" y="790" />
            </Array>
          </mxGeometry>
        </mxCell>
        <mxCell id="I2Jf-kGnw8Qhnhh_3Aru-28" value="注册的一系列供本地apk调用的LocalMethod" style="rounded=1;whiteSpace=wrap;html=1;" vertex="1" parent="1">
          <mxGeometry x="130" y="930" width="120" height="60" as="geometry" />
        </mxCell>
        <mxCell id="I2Jf-kGnw8Qhnhh_3Aru-29" value="" style="endArrow=classic;html=1;exitX=0.5;exitY=1.06;exitDx=0;exitDy=0;exitPerimeter=0;entryX=0.5;entryY=0;entryDx=0;entryDy=0;" edge="1" parent="1" source="I2Jf-kGnw8Qhnhh_3Aru-22" target="I2Jf-kGnw8Qhnhh_3Aru-28">
          <mxGeometry width="50" height="50" relative="1" as="geometry">
            <mxPoint x="340" y="890" as="sourcePoint" />
            <mxPoint x="390" y="840" as="targetPoint" />
          </mxGeometry>
        </mxCell>
        <mxCell id="I2Jf-kGnw8Qhnhh_3Aru-30" value="注册的一系列学生机调用的RemoteMethod" style="rounded=1;whiteSpace=wrap;html=1;" vertex="1" parent="1">
          <mxGeometry x="395" y="930" width="120" height="60" as="geometry" />
        </mxCell>
        <mxCell id="I2Jf-kGnw8Qhnhh_3Aru-31" value="" style="endArrow=classic;html=1;exitX=0.5;exitY=1.06;exitDx=0;exitDy=0;exitPerimeter=0;entryX=0.5;entryY=0;entryDx=0;entryDy=0;" edge="1" parent="1" source="I2Jf-kGnw8Qhnhh_3Aru-22" target="I2Jf-kGnw8Qhnhh_3Aru-28">
          <mxGeometry width="50" height="50" relative="1" as="geometry">
            <mxPoint x="190" y="872.9999999999998" as="sourcePoint" />
            <mxPoint x="190" y="930" as="targetPoint" />
            <Array as="points">
              <mxPoint x="190" y="900" />
            </Array>
          </mxGeometry>
        </mxCell>
        <mxCell id="I2Jf-kGnw8Qhnhh_3Aru-32" value="" style="endArrow=classic;html=1;exitX=0.5;exitY=1.06;exitDx=0;exitDy=0;exitPerimeter=0;entryX=0.5;entryY=0;entryDx=0;entryDy=0;" edge="1" parent="1" source="I2Jf-kGnw8Qhnhh_3Aru-22" target="I2Jf-kGnw8Qhnhh_3Aru-28">
          <mxGeometry width="50" height="50" relative="1" as="geometry">
            <mxPoint x="190" y="872.9999999999998" as="sourcePoint" />
            <mxPoint x="190" y="930" as="targetPoint" />
            <Array as="points" />
          </mxGeometry>
        </mxCell>
        <mxCell id="I2Jf-kGnw8Qhnhh_3Aru-33" value="" style="endArrow=classic;html=1;exitX=0.502;exitY=1.093;exitDx=0;exitDy=0;exitPerimeter=0;entryX=0.5;entryY=0;entryDx=0;entryDy=0;" edge="1" parent="1" source="I2Jf-kGnw8Qhnhh_3Aru-23" target="I2Jf-kGnw8Qhnhh_3Aru-30">
          <mxGeometry width="50" height="50" relative="1" as="geometry">
            <mxPoint x="340" y="870" as="sourcePoint" />
            <mxPoint x="390" y="820" as="targetPoint" />
          </mxGeometry>
        </mxCell>
        <mxCell id="I2Jf-kGnw8Qhnhh_3Aru-37" value="" style="endArrow=classic;html=1;exitX=1.007;exitY=0.369;exitDx=0;exitDy=0;exitPerimeter=0;entryX=0.042;entryY=0.367;entryDx=0;entryDy=0;entryPerimeter=0;" edge="1" parent="1" source="I2Jf-kGnw8Qhnhh_3Aru-28" target="I2Jf-kGnw8Qhnhh_3Aru-30">
          <mxGeometry width="50" height="50" relative="1" as="geometry">
            <mxPoint x="340" y="950" as="sourcePoint" />
            <mxPoint x="390" y="952" as="targetPoint" />
          </mxGeometry>
        </mxCell>
        <mxCell id="I2Jf-kGnw8Qhnhh_3Aru-38" value="" style="endArrow=classic;html=1;exitX=0;exitY=0.661;exitDx=0;exitDy=0;exitPerimeter=0;" edge="1" parent="1" source="I2Jf-kGnw8Qhnhh_3Aru-30">
          <mxGeometry width="50" height="50" relative="1" as="geometry">
            <mxPoint x="340" y="950" as="sourcePoint" />
            <mxPoint x="250" y="970" as="targetPoint" />
          </mxGeometry>
        </mxCell>
        <mxCell id="I2Jf-kGnw8Qhnhh_3Aru-39" value="RemoteMethod.xxx" style="text;html=1;align=center;verticalAlign=middle;resizable=0;points=[];autosize=1;" vertex="1" parent="1">
          <mxGeometry x="260" y="900" width="120" height="20" as="geometry" />
        </mxCell>
        <mxCell id="I2Jf-kGnw8Qhnhh_3Aru-40" value="LocalMethod.xxx" style="text;html=1;align=center;verticalAlign=middle;resizable=0;points=[];autosize=1;" vertex="1" parent="1">
          <mxGeometry x="275" y="1000" width="110" height="20" as="geometry" />
        </mxCell>
        <mxCell id="I2Jf-kGnw8Qhnhh_3Aru-36" value="互相调用通知" style="rounded=1;whiteSpace=wrap;html=1;" vertex="1" parent="1">
          <mxGeometry x="293.75" y="930" width="57.5" height="60" as="geometry" />
        </mxCell>
      </root>
    </mxGraphModel>
  </diagram>
</mxfile>
